                                                                        S      1
,,8Hcylinder,8Hcylinder,7Hunknown,7Hunknown,32,38,7,99,15,,1.,2,2HMM,1, G      1
0.08,15H20201123.163215,0.01,10000.,7Hunknown,7Hunknown,11,0,;          G      2
     186       1                                                00000000D      1
     186             -35       1       0                               0D      2
     514       2                                                00010000D      3
     514                       1       1                               0D      4
     510       3                                                00010000D      5
     510             -35       1       1                               0D      6
     510       4                                                00010000D      7
     510             -35       1       1                               0D      8
     510       5                                                00010000D      9
     510             -35       1       1                               0D     10
     508       6                                                00010000D     11
     508                       1       1                               0D     12
     508       7                                                00010000D     13
     508                       1       1                               0D     14
     508       8                                                00010000D     15
     508                       1       1                               0D     16
     126       9                                                00010000D     17
     126       0              12       0                               0D     18
     126      21                                                00010000D     19
     126       0               2       0                               0D     20
     126      23                                                00010000D     21
     126       0              12       0                               0D     22
     128      35                                                00010000D     23
     128       0     -35      18       0                               0D     24
     128      53                                                00010000D     25
     128       0     -35       7       0                               0D     26
     128      60                                                00010000D     27
     128       0     -35       7       0                               0D     28
     502      67                                                00010000D     29
     502                       1       1                               0D     30
     504      68                                                00010001D     31
     504                       1       1                               0D     32
     406      69                                                00000000D     33
     406                       1      15                               0D     34
     314      70                                                00000200D     35
     314                       2       0                               0D     36
186,3,1,0,0,1,33;                                                      1P      1
514,3,5,1,7,1,9,1;                                                     3P      2
510,23,1,1,11;                                                         5P      3
510,25,1,1,13;                                                         7P      4
510,27,1,1,15;                                                         9P      5
508,4,0,31,1,0,0,0,31,2,1,0,0,31,3,1,0,0,31,2,0,0;                    11P      6
508,1,0,31,1,1,0;                                                     13P      7
508,1,0,31,3,0,0;                                                     15P      8
126,8,2,0,1,0,0,-3.14159265358979,-3.14159265358979,                  17P      9
-3.14159265358979,-1.5707963267949,-1.5707963267949,0.,0.,            17P     10
1.5707963267949,1.5707963267949,3.14159265358979,                     17P     11
3.14159265358979,3.14159265358979,1.,0.707106781186548,1.,            17P     12
0.707106781186548,1.,0.707106781186548,1.,0.707106781186548,1.,       17P     13
0.,-6.12323408698006D-16,20.,8.61273216661581D-16,                    17P     14
-5.00000007450581,20.,5.00000007450581,-5.00000007450581,20.,         17P     15
10.0000001490116,-5.00000007450581,20.,10.0000001490116,0.,20.,       17P     16
10.0000001490116,5.00000007450581,20.,5.00000007450581,               17P     17
5.00000007450581,20.,8.61273216661581D-16,5.00000007450581,20.,       17P     18
0.,6.12323408698006D-16,20.,-3.14159265358979,3.14159265358979,       17P     19
0.,0.,0.;                                                             17P     20
126,1,1,0,0,1,0,-3.99999994039536,-3.99999994039536,0.,0.,1.,1.,      19P     21
0.,0.,20.,0.,0.,0.,-3.99999994039536,0.,0.,0.,0.;                     19P     22
126,8,2,0,1,0,0,-3.14159265358979,-3.14159265358979,                  21P     23
-3.14159265358979,-1.5707963267949,-1.5707963267949,0.,0.,            21P     24
1.5707963267949,1.5707963267949,3.14159265358979,                     21P     25
3.14159265358979,3.14159265358979,1.,0.707106781186548,1.,            21P     26
0.707106781186548,1.,0.707106781186548,1.,0.707106781186548,1.,       21P     27
0.,-6.12323408698006D-16,0.,8.61273216661581D-16,                     21P     28
-5.00000007450581,0.,5.00000007450581,-5.00000007450581,0.,           21P     29
10.0000001490116,-5.00000007450581,0.,10.0000001490116,0.,0.,         21P     30
10.0000001490116,5.00000007450581,0.,5.00000007450581,                21P     31
5.00000007450581,0.,8.61273216661581D-16,5.00000007450581,0.,0.,      21P     32
6.12323408698006D-16,0.,-3.14159265358979,3.14159265358979,0.,        21P     33
0.,0.;                                                                21P     34
128,1,8,1,2,0,1,0,0,1,0.,0.,3.99999994039536,3.99999994039536,        23P     35
-3.14159265358979,-3.14159265358979,-3.14159265358979,                23P     36
-1.5707963267949,-1.5707963267949,0.,0.,1.5707963267949,              23P     37
1.5707963267949,3.14159265358979,3.14159265358979,                    23P     38
3.14159265358979,1.,1.,0.707106781186548,0.707106781186548,1.,        23P     39
1.,0.707106781186548,0.707106781186548,1.,1.,0.707106781186548,       23P     40
0.707106781186548,1.,1.,0.707106781186548,0.707106781186548,1.,       23P     41
1.,0.,0.,20.,0.,0.,0.,1.11022302462516D-15,-5.00000007450581,         23P     42
20.,1.11022302462516D-15,-5.00000007450581,0.,5.00000007450581,       23P     43
-5.00000007450581,20.,5.00000007450581,-5.00000007450581,0.,          23P     44
10.0000001490116,-5.00000007450581,20.,10.0000001490116,              23P     45
-5.00000007450581,0.,10.0000001490116,0.,20.,10.0000001490116,        23P     46
0.,0.,10.0000001490116,5.00000007450581,20.,10.0000001490116,         23P     47
5.00000007450581,0.,5.00000007450581,5.00000007450581,20.,            23P     48
5.00000007450581,5.00000007450581,0.,1.11022302462516D-15,            23P     49
5.00000007450581,20.,1.11022302462516D-15,5.00000007450581,0.,        23P     50
0.,0.,20.,0.,0.,0.,0.,3.99999994039536,-3.14159265358979,             23P     51
3.14159265358979;                                                     23P     52
128,1,1,1,1,0,0,1,0,0,-0.501000007450581,-0.501000007450581,          25P     53
0.501000007450581,0.501000007450581,-0.501000007450581,               25P     54
-0.501000007450581,0.501000007450581,0.501000007450581,1.,1.,1.,      25P     55
1.,-0.01,-5.01000007450581,20.,10.0100001490116,                      25P     56
-5.01000007450581,20.,-0.01,5.01000007450581,20.,                     25P     57
10.0100001490116,5.01000007450581,20.,-0.501000007450581,             25P     58
0.501000007450581,-0.501000007450581,0.501000007450581;               25P     59
128,1,1,1,1,0,0,1,0,0,-0.501000007450581,-0.501000007450581,          27P     60
0.501000007450581,0.501000007450581,-0.501000007450581,               27P     61
-0.501000007450581,0.501000007450581,0.501000007450581,1.,1.,1.,      27P     62
1.,10.0100001490116,-5.01000007450581,0.,-0.01,                       27P     63
-5.01000007450581,0.,10.0100001490116,5.01000007450581,0.,-0.01,      27P     64
5.01000007450581,0.,-0.501000007450581,0.501000007450581,             27P     65
-0.501000007450581,0.501000007450581;                                 27P     66
502,2,0.,-6.12323408698006D-16,20.,0.,-6.12323408698006D-16,0.;       29P     67
504,3,17,29,1,29,1,19,29,1,29,2,21,29,2,29,2;                         31P     68
406,1,5HBody1;                                                        33P     69
314,62.7450980392157,62.7450980392157,62.7450980392157,13HSteel       35P     70
- Satin;                                                              35P     71
S      1G      2D     36P     71                                        T      1
